/* XPM */
static char *_6a61bb500af40769bd79168f292c885ThwoBLLlKW5H91s2[] = {
/* columns rows colors chars-per-pixel */
"32 32 11 1 ",
"  c #523B40",
". c #3D253B",
"X c #1E413B",
"o c #80D35B",
"O c #3CA03A",
"+ c #307A53",
"@ c #180909",
"# c #1F142D",
"$ c #9C1E78",
"% c #E24B6A",
"& c #600E58",
/* pixels */
"   ...........................  ",
"   ...........................  ",
"  ................   .......... ",
".................     ..........",
".................     ..........",
"......   ........     ..........",
".....     .......     ..........",
"....      ........   ...........",
"....      ...XXXX...............",
"....     ....XooOX.XXXXX........",
".....   ......X+++XooO+X...  ...",
"...............X+OooO+@...   ...",
"...............XOOOO+@....  ....",
"............###XOO++@...........",
"...........#$$$$+++XX@..........",
"..........#$%%$$&+XXXX@.........",
".........#$$%%$$&&@@@X@.........",
"......   #$$$$$$&&@ .@@.........",
".....    #$$$$$&&&@.............",
" ....    #&$$&&&&&@............ ",
" ....    #&&&&&&&@............. ",
".....    #&&&&&&@...............",
"......  #&&@@@@@......    ......",
"........#@@..........      .....",
".....................      .....",
".....................      .....",
"......................    ......",
".............  .................",
" ............  ................ ",
"  ............................  ",
"   ...........................  ",
"   ...........................  "
};
