/* XPM */
static char *_9c317c3df834087e3a233553f6d0862kWr4yT5kfNchtXDb[] = {
/* columns rows colors chars-per-pixel */
"16 16 10 1 ",
"  c None",
". c #180909",
"X c #1F142D",
"o c #1E413B",
"O c #600E58",
"+ c #307A53",
"@ c #9C1E78",
"# c #E24B6A",
"$ c #3CA03A",
"% c #80D35B",
/* pixels */
"     oooo       ",
"     o%%$o ooooo",
"      o+++o%%$+o",
"       o+$%%$+. ",
"       o$$$$+.  ",
"    XXXo$$++.   ",
"   X@@@@+++oo.  ",
"  X@##@@O+oooo. ",
" X@@##@@OO...o. ",
" X@@@@@@OO.  .. ",
" X@@@@@OOO.     ",
" XO@@OOOOO.     ",
" XOOOOOOO.      ",
" XOOOOOO.       ",
"XOO.....        ",
"X..             "
};
