/* XPM */
static char *_067b87ae4bc498afac80b8ef15b89e3xkPesDCHV7IAmfR0[] = {
/* columns rows colors chars-per-pixel */
"16 16 10 1 ",
"  c None",
". c #180909",
"X c #1E413B",
"o c #307A53",
"O c #E24B6A",
"+ c #3CA03A",
"@ c #80D35B",
"# c #F19882",
"$ c #F8BFA0",
"% c #FFEBC6",
/* pixels */
"          XX    ",
"        XX++X   ",
"       X@+@@+X  ",
"       X@+@++X  ",
"      X@+@@+@X  ",
"      X@+@+@@oX ",
"    #X@+%@@@ooo.",
"   #%@%%@@$o++o.",
"  #%@%%@+$+..oo.",
" #%%%%++$+.  ...",
" #%%%++%$.      ",
"O%%%%%%$$.      ",
"O$%%%%$$.       ",
"O$$%%$$.        ",
" O$$$..         ",
"  ...           "
};
