/* XPM */
static char *d2634928bc7d424ad37c7cad75d39d63XTWQ82L8jAesE5ip[] = {
/* columns rows colors chars-per-pixel */
"16 16 6 1 ",
"  c None",
". c #180909",
"X c #1E413B",
"o c #307A53",
"O c #3CA03A",
"+ c #80D35B",
/* pixels */
"    .........   ",
"   .oooXXoooo.  ",
"  .oOOOooooooo. ",
"  .oOOooXooXoXX.",
" .XXooOOoXXOOoX.",
" .XooOOoooOOooX.",
" .XoooooooXooXX.",
" .XXooXooXXXXX. ",
"  .XXXXXXXXXX.  ",
"   ..XXXXXXX.   ",
"     ..OOO..    ",
"      .+OO.     ",
"      .++O.     ",
"     .+++O.     ",
"     .++OO.     ",
"      ....      "
};
