/* XPM */
static char *result[] = {
/* columns rows colors chars-per-pixel */
"32 32 11 1 ",
"  c #523B40",
". c #3D253B",
"X c #200529",
"o c #EA8056",
"O c #EAB06B",
"+ c #DC8C7E",
"@ c #B66387",
"# c #5F2B2C",
"$ c #9E4C3D",
"% c #6E7468",
"& c #584A4C",
/* pixels */
"   ...........................  ",
"   ...........................  ",
"  ................   .......... ",
".................     ..........",
".................     ..........",
"......   ........     ..........",
".....     .......     ..........",
"....      ..XXXXXXX  ...........",
"....      .XoooooooX............",
"....     .XoOOOOOOOoX...........",
".....   .XoOOOOOOOOOoX.....  ...",
".........XOOOOOOOOOOOX....   ...",
".......XXXOOoooooooOOXXX..  ....",
".......X+@Oo@@@@@@@oO@+X........",
"........X@o@+X+++X+@o@X.........",
".........Xo++X+++X++oX..........",
".........XoX+++++++XoX..........",
"......    X#XXXXXXX#X...........",
".....    X$$#$$$$$#$$X..........",
" ....    X+$X#$$$#X$+X......... ",
" ....    X++X#####X++X......... ",
".....     XX%%&&&%%XX...........",
"......    .X&&&X&&&X..    ......",
"...........X$#X.X#$X.      .....",
"............XX...XX..      .....",
".....................      .....",
"......................    ......",
".............  .................",
" ............  ................ ",
"  ............................  ",
"   ...........................  ",
"   ...........................  "
};
