/* XPM */
static char *result[] = {
/* columns rows colors chars-per-pixel */
"32 32 10 1 ",
"  c #523B40",
". c #3D253B",
"X c #200529",
"o c #EA8056",
"O c #EAB06B",
"+ c #B66387",
"@ c #DC8C7E",
"# c #9E4C3D",
"$ c #5F2B2C",
"% c #584A4C",
/* pixels */
"   ...........................  ",
"   ...........................  ",
"  ................   .......... ",
".................     ..........",
".................     ..........",
"......   ........     ..........",
".....     .......     ..........",
"....      ...XXXXXXX ...........",
"....      ..XooooOOOX...........",
"....     ..XoooOOOOOOX..........",
".....   ..XoooOOOOOOOX.....  ...",
"..........XooOOOOOOOOX....   ...",
"..........XooOOOOOO++X....  ....",
"..........XooOO@OOOX@X..........",
"..........XooOO@OOoX@X..........",
"..........XooOO+OOo@@X..........",
"..........XooOOoOO+@X...........",
"......     XooOOOXXX............",
".....       XoXXX#X.............",
" ....       .X$X##X............ ",
" ....       .X$X#@X............ ",
".....      ..X%X@@X.............",
"......    ....X%XX....    ......",
"..............X$$$X..      .....",
"...............XXXX..      .....",
".....................      .....",
"......................    ......",
".............  .................",
" ............  ................ ",
"  ............................  ",
"   ...........................  ",
"   ...........................  "
};
