/* XPM */
static char *result[] = {
/* columns rows colors chars-per-pixel */
"32 32 10 1 ",
"  c #523B40",
". c #3D253B",
"X c #200529",
"o c #EAB06B",
"O c #EA8056",
"+ c #B66387",
"@ c #DC8C7E",
"# c #9E4C3D",
"$ c #5F2B2C",
"% c #584A4C",
/* pixels */
"   ...........................  ",
"   ...........................  ",
"  ................   .......... ",
".................     ..........",
".................     ..........",
"......   ........     ..........",
".....     .......     ..........",
"....      ..XXXXXXX  ...........",
"....      .XoooOOOOX............",
"....     .XooooooOOOX...........",
".....   ..XoooooooOOOX.....  ...",
"..........XooooooooOOX....   ...",
"..........X++ooooooOOX....  ....",
"..........X@Xooo@ooOOX..........",
"..........X@XOoo@ooOOX..........",
"..........X@@Ooo+ooOOX..........",
"...........X@+ooOooOOX..........",
"......     .XXXoooOOX...........",
".....       .X#XXXOX............",
" ....       .X##X$X............ ",
" ....       .X@#X$X............ ",
".....      ..X@@X%X.............",
"......    ....XX%X....    ......",
".............X$$$X...      .....",
".............XXXX....      .....",
".....................      .....",
"......................    ......",
".............  .................",
" ............  ................ ",
"  ............................  ",
"   ...........................  ",
"   ...........................  "
};
