/* XPM */
static char *result[] = {
/* columns rows colors chars-per-pixel */
"32 32 11 1 ",
"  c #523B40",
". c #3D253B",
"X c #200529",
"o c #EA8056",
"O c #EAB06B",
"+ c #B66387",
"@ c #5F2B2C",
"# c #DC8C7E",
"$ c #584A4C",
"% c #6E7468",
"& c #9E4C3D",
/* pixels */
"   ...........................  ",
"   ...........................  ",
"  ................   .......... ",
".................     ..........",
".................     ..........",
"......   ........     ..........",
".....     .......     ..........",
"....      ..XXXXXXX  ...........",
"....      .XoooooooX............",
"....     .XoOOOOOOOoX...........",
".....   .XoOOOOOOOOOoX.....  ...",
".........XOOOOOOOOOOOX....   ...",
".......XXXOOOOOOOOOOOXXX..  ....",
".......X++oOOOOOOOOOo++X........",
"........X+oOOOOOOOOOo+X.........",
".........XooOOOOOOOooX..........",
".........XooooOOOooooX..........",
"......    XoooooooooX...........",
".....    X@@ooooooo@@X..........",
" ....    X+@X@ooo@X@+X......... ",
" ....    X#+X@@@@@X+#X......... ",
".....     XX$$$$$$$XX...........",
"......    .X$%%X%%$X..    ......",
"...........X@&X.X&@X.      .....",
"............XX...XX..      .....",
".....................      .....",
"......................    ......",
".............  .................",
" ............  ................ ",
"  ............................  ",
"   ...........................  ",
"   ...........................  "
};
