/* XPM */
static char *result[] = {
/* columns rows colors chars-per-pixel */
"32 32 5 1 ",
"  c #523B40",
". c #25131A",
"X c #BF704D",
"o c #3D253B",
"O c #895A45",
/* pixels */
" .XXXoo.oooooooooooooooo.XXXoo. ",
" .XXXoo.oooooooooooooooo.XXXoo. ",
" .XXXoo..................XXXoo. ",
".OXXXoOOOXXXXXXXXXXXXXXXOXXXoOO.",
".OXXXoOOOXXXXXXXXXXXXXXXOXXXoOO.",
"o.XXXoo..................XXXoo.o",
"o.XXXoo.  ooooooo     oo.XXXoo.o",
"o.XXXoo.  oooooooo   ooo.XXXoo.o",
"o.XXXoo.  oooooooooooooo.XXXoo.o",
"o.XXXoo. ooooooooooooooo.XXXoo.o",
"o.XXXoo..................XXXoo.o",
".OXXXoOOOXXXXXXXXXXXXXXXOXXXoOO.",
".OXXXoOOOXXXXXXXXXXXXXXXOXXXoOO.",
"o.XXXoo..................XXXoo.o",
"o.XXXoo.oooooooooooooooo.XXXoo.o",
"o.XXXoo.ooooooooo  ooooo.XXXoo.o",
"o.XXXoo.ooooooooo   oooo.XXXoo.o",
"o.XXXoo.   ooooooo  oooo.XXXoo.o",
"o.XXXoo..................XXXoo.o",
".OXXXoOOOXXXXXXXXXXXXXXXOXXXoOO.",
".OXXXoOOOXXXXXXXXXXXXXXXOXXXoOO.",
"o.XXXoo..................XXXoo.o",
"o.XXXoo.  oooooooooooo  .XXXoo.o",
"o.XXXoo.ooooooooooooo   .XXXoo.o",
"o.XXXoo.ooooooooooooo   .XXXoo.o",
"o.XXXoo.ooooooooooooo   .XXXoo.o",
"o.XXXoo..................XXXoo.o",
".OXXXoOOOXXXXXXXXXXXXXXXOXXXoOO.",
".OXXXoOOOXXXXXXXXXXXXXXXOXXXoOO.",
" .XXXoo..................XXXoo. ",
" .XXXoo.oooooooooooooooo.XXXoo. ",
" .XXXoo.oooooooooooooooo.XXXoo. "
};
