/* XPM */
static char *result[] = {
/* columns rows colors chars-per-pixel */
"32 32 5 1 ",
"  c #523B40",
". c #25131A",
"X c #3D253B",
"o c #BF704D",
"O c #895A45",
/* pixels */
"  .....XXXXXXXXXXXXXXXXXX.....  ",
" .oooXX.XXXXXXXXXXXXXXXX.oooXX. ",
" .oooXX..................oooXX. ",
".OoooXOOOoooooooooooooooOoooXOO.",
".OoooXOOOoooooooooooooooOoooXOO.",
"X.oooXX..................oooXX.X",
"X.oooXX.  XXXXXXX     XX.oooXX.X",
"X.oooXX.  XXXXXXXX   XXX.oooXX.X",
"X.oooXX.  XXXXXXXXXXXXXX.oooXX.X",
"X.oooXX. XXXXXXXXXXXXXXX.oooXX.X",
"X.oooXX..XXXXXXXXXXXX....oooXX.X",
".OoooXOOO...XXXXXX...oooOoooXOO.",
".OoooXOOOooo.XX...ooooooOoooXOO.",
"X.oooXX.Oooo.X.ooooooo...oooXX.X",
"X.oooXX......X.oooo...XX.oooXX.X",
"X.oooXX.XXXXXX.....XXXXX.oooXX.X",
"X.oooXX.XXXXXXXXX   XXXX.oooXX.X",
"X.oooXX.   XXXXXXX  XXXX.oooXX.X",
"X.oooXX..................oooXX.X",
".OoooXOOOoooooooooooooooOoooXOO.",
".OoooXOOOoooooooooooooooOoooXOO.",
"X.oooXX..................oooXX.X",
"X.oooXX.  XXXXXXXXXXXX  .oooXX.X",
"X.oooXX.XXXXXXXXXXXXX   .oooXX.X",
"X.oooXX.XXXXXXXXXXXXX   .oooXX.X",
"X.oooXX.XXXXXXXXXXXXX   .oooXX.X",
"X.oooXX...XXXXXXXXXXXX...oooXX.X",
".OoooXOOOo.....XXXXXX.ooOoooXOO.",
".OoooXOOOoooooo.XXXXX.ooOoooXOO.",
" .oooXX..oooooo.XXXXX....oooXX. ",
" .oooXX.X.......XXXXXXXX.oooXX. ",
" .oooXX.XXXXXXXXXXXXXXXX.oooXX. "
};
